<?xml version="1.0" encoding="utf-8"?>
<svg version="1.1" id="图层_1" xmlns="http://www.w3.org/2000/svg" xmlns:xlink="http://www.w3.org/1999/xlink" x="0px" y="0px"
	 viewBox="0 0 144 144" style="enable-background:new 0 0 144 144;" xml:space="preserve">
<style type="text/css">
	.st0{fill:url(#Combined-Shape-Copy_1_);}
</style>
<g id="Page-1">
	<g id="Artboard" transform="translate(-97.000000, -64.000000)">
		
			<linearGradient id="Combined-Shape-Copy_1_" gradientUnits="userSpaceOnUse" x1="161.0556" y1="143.4444" x2="161.0556" y2="142.479" gradientTransform="matrix(144 0 0 -144 -23023 20720)">
			<stop  offset="0" style="stop-color:#45ABFF"/>
			<stop  offset="0.2331" style="stop-color:#45ABFF"/>
			<stop  offset="1" style="stop-color:#326DFF"/>
		</linearGradient>
		<path id="Combined-Shape-Copy" class="st0" d="M127.7,167.4c1.5,2.5,2.3,5.4,2.3,8.5c0,9.2-7.4,16.6-16.5,16.6S97,185.1,97,175.9
			c0-9.2,7.4-16.6,16.5-16.6c4.4,0,8.4,1.7,11.4,4.6l21.9-16.6c-1.7-3.4-2.6-7.2-2.6-11.3c0-5.6,1.8-10.7,4.8-14.9l-26.1-23
			c-2.7,1.8-5.9,2.9-9.4,2.9c-9.1,0-16.5-7.4-16.5-16.6s7.4-16.6,16.5-16.6S130,75.3,130,84.4c0,4-1.4,7.7-3.8,10.6l25.7,22.6
			c4.6-4.5,10.8-7.2,17.7-7.2c2.3,0,4.5,0.3,6.7,0.9l5.8-15.8c-5.5-2.7-9.3-8.4-9.3-14.9c0-9.2,7.4-16.6,16.5-16.6
			c9.1,0,16.5,7.4,16.5,16.6s-7.4,16.6-16.5,16.6c-1,0-2-0.1-3-0.3l-5.8,16c8.6,4.1,14.6,12.9,14.6,23.1c0,0.8,0,1.6-0.1,2.4
			l13.8,1.7c2-6.8,8.4-11.8,15.8-11.8c9.1,0,16.5,7.4,16.5,16.6c0,9.2-7.4,16.6-16.5,16.6S208,154.1,208,145c0-0.1,0-0.2,0-0.4
			l-13.9-1.7c-1.9,6.9-6.6,12.5-12.7,15.8l8.9,17.7c2.1-1,4.5-1.5,6.9-1.5c9.1,0,16.5,7.4,16.5,16.6s-7.4,16.6-16.5,16.6
			s-16.5-7.4-16.5-16.6c0-5.1,2.3-9.6,5.8-12.6l-9.3-18.4c-2.4,0.8-5,1.2-7.7,1.2c-8.4,0-15.9-4.1-20.5-10.4L127.7,167.4z"/>
	</g>
</g>
</svg>
